<svg xmlns="http://www.w3.org/2000/svg" style="display:none"><symbol id="i-home" viewBox="0 0 24 24"><path d="M3 10.5 12 3l9 7.5v9a1.5 1.5 0 0 1-1.5 1.5H4.5A1.5 1.5 0 0 1 3 19.5z" fill="currentColor"/></symbol><symbol id="i-wallet" viewBox="0 0 24 24"><path d="M3 6.5A2.5 2.5 0 0 1 5.5 4H20v4H6a3 3 0 0 0 0 6h14v4H5.5A2.5 2.5 0 0 1 3 15.5z" fill="currentColor"/><path d="M6 9h15v6H6a3 3 0 0 1 0-6zm12 2.2a.8.8 0 1 0 0 1.6.8.8 0 0 0 0-1.6z" fill="none" stroke="currentColor" stroke-width="1.8"/></symbol><symbol id="i-game" viewBox="0 0 24 24"><path d="M7 7h10a5 5 0 0 1 4.8 6.4l-1.2 4.1a2.7 2.7 0 0 1-4.7 1l-2.3-2.7H10.4l-2.3 2.7a2.7 2.7 0 0 1-4.7-1l-1.2-4.1A5 5 0 0 1 7 7z" fill="none" stroke="currentColor" stroke-width="1.8"/><path d="M7.5 10v4M5.5 12h4M16.5 11.5h.01M19 14h.01" stroke="currentColor" stroke-width="2.6" stroke-linecap="round"/></symbol><symbol id="i-fire" viewBox="0 0 24 24"><path d="M13 2c.4 3-2.4 4.4-2.7 7.2-.2 1.5.4 2.5 1.5 3.6 0-3.2 2.4-4.8 3.2-7 2.1 2.4 4 5 4 8.2A7 7 0 1 1 6.2 8.8c.4 2.4 1.7 3.7 3.1 4.8C9 9.5 13.1 7.2 13 2z" fill="currentColor"/></symbol><symbol id="i-bell" viewBox="0 0 24 24"><path d="M18 9a6 6 0 0 0-12 0c0 7-3 7-3 9h18c0-2-3-2-3-9zM10 21h4" fill="none" stroke="currentColor" stroke-width="1.8" stroke-linecap="round" stroke-linejoin="round"/></symbol><symbol id="i-user" viewBox="0 0 24 24"><circle cx="12" cy="8" r="4" fill="none" stroke="currentColor" stroke-width="1.8"/><path d="M4 21a8 8 0 0 1 16 0" fill="none" stroke="currentColor" stroke-width="1.8" stroke-linecap="round"/></symbol><symbol id="i-phone" viewBox="0 0 24 24"><path d="M7 3h10a2 2 0 0 1 2 2v14a2 2 0 0 1-2 2H7a2 2 0 0 1-2-2V5a2 2 0 0 1 2-2z" fill="none" stroke="currentColor" stroke-width="1.8"/><path d="M9 6h6M10 18h4" stroke="currentColor" stroke-width="1.8" stroke-linecap="round"/></symbol><symbol id="i-mail" viewBox="0 0 24 24"><rect x="3" y="5" width="18" height="14" rx="2" fill="none" stroke="currentColor" stroke-width="1.8"/><path d="m4 7 8 6 8-6" fill="none" stroke="currentColor" stroke-width="1.8"/></symbol><symbol id="i-lock" viewBox="0 0 24 24"><rect x="4" y="10" width="16" height="11" rx="2" fill="none" stroke="currentColor" stroke-width="1.8"/><path d="M8 10V7a4 4 0 0 1 8 0v3" fill="none" stroke="currentColor" stroke-width="1.8"/></symbol><symbol id="i-eye" viewBox="0 0 24 24"><path d="M2 12s3.6-6 10-6 10 6 10 6-3.6 6-10 6S2 12 2 12z" fill="none" stroke="currentColor" stroke-width="1.8"/><circle cx="12" cy="12" r="2.5" fill="none" stroke="currentColor" stroke-width="1.8"/></symbol><symbol id="i-chevron" viewBox="0 0 24 24"><path d="m9 5 7 7-7 7" fill="none" stroke="currentColor" stroke-width="2" stroke-linecap="round" stroke-linejoin="round"/></symbol></svg>